<?xml version="1.0" standalone="no"?>
<!DOCTYPE svg PUBLIC "-//W3C//DTD SVG 20010904//EN"
 "http://www.w3.org/TR/2001/REC-SVG-20010904/DTD/svg10.dtd">
<svg version="1.0" xmlns="http://www.w3.org/2000/svg"
 width="512.000000pt" height="512.000000pt" viewBox="0 0 512.000000 512.000000"
 preserveAspectRatio="xMidYMid meet">
<metadata>
Created by potrace 1.14, written by Peter Selinger 2001-2017
</metadata>
<g transform="translate(0.000000,512.000000) scale(0.100000,-0.100000)"
fill="#000000" stroke="none">
<path d="M1063 4935 c-18 -19 -23 -36 -23 -75 0 -27 5 -50 10 -50 6 0 10 -9
10 -19 0 -35 73 -43 108 -12 18 15 22 29 22 80 0 33 -4 61 -9 61 -5 0 -13 9
-16 20 -9 30 -73 27 -102 -5z"/>
<path d="M1273 4945 c-7 -8 -13 -21 -13 -29 0 -8 -4 -18 -10 -21 -27 -17 7
-119 44 -129 40 -11 61 -6 83 21 34 39 28 119 -11 159 -19 18 -77 18 -93 -1z"/>
<path d="M930 4200 c0 -327 3 -500 10 -500 6 0 10 -13 10 -30 0 -16 4 -30 9
-30 5 0 12 -11 15 -25 8 -33 83 -105 109 -105 7 0 19 -6 26 -12 8 -9 47 -13
118 -13 76 0 108 4 111 13 2 6 11 12 21 12 22 0 91 63 91 84 0 9 4 16 9 16 5
0 16 29 25 65 14 54 16 133 16 529 0 255 -3 471 -6 480 -5 13 -23 16 -90 16
l-84 0 0 -455 c0 -297 -3 -455 -10 -455 -5 0 -10 -11 -10 -25 0 -65 -100 -91
-146 -37 l-24 27 0 457 c0 251 -3 463 -6 472 -5 13 -24 16 -100 16 l-94 0 0
-500z"/>
<path d="M1943 4685 c-10 -11 -13 -144 -13 -590 0 -505 2 -578 15 -592 13 -12
36 -14 133 -10 150 7 216 15 220 27 2 6 12 10 23 10 10 0 19 5 19 10 0 6 5 10
10 10 14 0 59 51 60 68 0 6 5 12 10 12 6 0 10 11 10 25 0 14 5 25 10 25 6 0
10 20 10 45 0 25 5 45 10 45 6 0 10 28 10 65 0 37 -4 65 -10 65 -5 0 -10 23
-10 50 0 28 -4 50 -10 50 -5 0 -10 7 -10 15 0 8 -4 15 -10 15 -5 0 -10 7 -10
16 0 18 -18 37 -43 47 -14 5 -16 11 -7 27 6 11 14 20 19 20 5 0 14 14 21 30 7
17 16 30 21 30 5 0 9 16 9 35 0 19 5 35 10 35 6 0 10 42 10 105 0 63 -4 105
-10 105 -5 0 -10 16 -10 35 0 19 -4 35 -10 35 -5 0 -10 7 -10 17 0 18 -64 80
-92 89 -10 3 -18 10 -18 15 0 5 -29 9 -65 9 -37 0 -65 4 -65 10 0 17 -212 12
-227 -5z m286 -235 c30 -29 31 -34 31 -108 0 -70 -3 -80 -29 -109 -22 -26 -37
-33 -65 -33 l-36 0 0 140 0 140 34 0 c23 0 42 -9 65 -30z m1 -466 c15 -14 30
-40 34 -57 3 -18 8 -47 12 -64 4 -22 2 -33 -5 -33 -6 0 -11 -13 -11 -28 0 -30
-45 -82 -71 -82 -8 0 -20 -5 -26 -11 -27 -27 -33 4 -33 158 l0 155 36 -6 c19
-4 48 -19 64 -32z"/>
<path d="M2876 4684 c-3 -9 -6 -281 -6 -605 l0 -589 189 0 c163 0 190 2 195
16 3 9 6 60 6 114 0 114 4 110 -110 110 -43 0 -85 3 -94 6 -24 9 -24 259 0
268 9 3 51 6 94 6 l79 0 3 105 3 105 -82 0 c-45 0 -88 3 -97 6 -13 5 -16 25
-16 120 l0 113 108 3 107 3 3 95 c5 153 23 140 -192 140 -158 0 -185 -2 -190
-16z"/>
<path d="M3670 4095 l0 -606 93 3 92 3 3 190 c2 195 7 237 22 200 5 -11 9 -32
9 -47 1 -16 6 -28 11 -28 6 0 10 -16 10 -35 0 -19 5 -35 10 -35 6 0 10 -13 10
-30 0 -16 5 -30 10 -30 6 0 10 -14 10 -30 0 -17 4 -38 9 -48 5 -9 15 -37 23
-62 l15 -45 96 -3 97 -3 0 31 c0 16 -4 30 -10 30 -5 0 -10 14 -10 30 0 17 -4
30 -10 30 -5 0 -10 16 -10 35 0 19 -4 35 -10 35 -5 0 -10 7 -10 16 0 9 -6 30
-13 47 -21 48 -37 101 -37 120 0 9 -4 17 -10 17 -5 0 -10 14 -10 30 0 17 -4
30 -10 30 -5 0 -10 15 -10 34 0 19 -5 36 -12 38 -7 3 8 24 35 51 56 57 87 114
87 161 0 19 5 38 10 41 6 3 10 44 10 91 0 49 -4 84 -10 84 -5 0 -10 20 -10 45
0 25 -4 45 -10 45 -5 0 -10 7 -10 15 0 17 -10 31 -47 68 -34 34 -51 47 -63 47
-5 0 -10 5 -10 10 0 6 -22 10 -50 10 -27 0 -50 5 -50 10 0 6 -47 10 -120 10
l-120 0 0 -605z m276 378 c35 -32 60 -172 34 -188 -5 -3 -10 -17 -10 -31 0
-13 -4 -24 -10 -24 -5 0 -10 -5 -10 -11 0 -20 -29 -39 -59 -39 l-31 0 0 148
c0 82 3 152 7 155 13 13 60 7 79 -10z"/>
<path d="M930 2430 l0 -600 205 0 205 0 0 120 0 120 -105 0 -105 0 0 464 c0
255 -3 471 -6 480 -5 13 -24 16 -100 16 l-94 0 0 -600z"/>
<path d="M1833 3015 c-7 -8 -13 -37 -13 -65 0 -27 -4 -50 -10 -50 -6 0 -10
-28 -10 -65 0 -36 -4 -65 -9 -65 -4 0 -11 -19 -14 -42 -7 -53 -34 -205 -48
-273 -6 -27 -13 -76 -16 -107 -3 -32 -9 -58 -14 -58 -5 0 -9 -25 -9 -55 0 -30
-4 -55 -10 -55 -5 0 -10 -25 -10 -55 0 -30 -4 -55 -10 -55 -6 0 -10 -28 -10
-65 0 -37 -4 -65 -10 -65 -5 0 -10 -25 -10 -55 l0 -55 85 0 c67 0 85 3 85 14
0 8 4 16 9 18 5 2 10 37 12 78 2 41 9 78 14 82 6 4 49 8 98 8 l87 0 0 -55 c0
-30 5 -55 10 -55 6 0 10 -20 10 -45 l0 -45 96 0 97 0 -7 33 c-4 17 -10 55 -13
82 -3 28 -9 55 -13 60 -4 6 -8 37 -9 70 -1 33 -6 62 -12 63 -5 2 -9 26 -9 52
0 27 -4 51 -8 54 -5 3 -9 22 -10 43 -2 53 -32 234 -42 258 -9 19 -13 49 -26
188 -3 31 -10 57 -15 57 -5 0 -9 29 -9 65 0 37 -4 65 -10 65 -5 0 -10 19 -10
43 0 24 -5 48 -12 55 -18 18 -179 15 -195 -3z m97 -425 c0 -33 4 -60 10 -60 6
0 10 -35 10 -84 0 -46 4 -86 9 -88 5 -1 10 -30 12 -63 4 -60 4 -60 -25 -63
-50 -6 -76 6 -76 33 0 14 4 25 9 25 5 0 9 39 10 87 0 47 5 91 11 97 5 5 10 47
10 93 0 49 4 83 10 83 6 0 10 -27 10 -60z"/>
<path d="M2603 3016 c-4 -8 -7 -278 -5 -600 l2 -586 85 0 85 0 0 319 c0 176 3
326 6 335 11 29 24 16 24 -24 0 -22 5 -40 10 -40 6 0 10 -16 10 -35 0 -19 5
-35 10 -35 6 0 10 -9 10 -20 0 -21 46 -172 61 -202 5 -10 9 -31 9 -48 0 -16 5
-30 10 -30 6 0 10 -16 10 -35 0 -19 5 -35 10 -35 6 0 10 -13 10 -30 0 -16 5
-30 10 -30 6 0 10 -12 10 -26 0 -55 14 -64 98 -64 47 0 83 5 90 12 17 17 17
1159 0 1176 -16 16 -150 16 -166 0 -16 -16 -17 -521 -1 -567 7 -20 8 -52 3
-89 l-8 -57 -10 48 c-5 26 -13 47 -18 47 -4 0 -8 16 -8 35 0 19 -4 35 -10 35
-5 0 -10 18 -10 40 0 22 -4 40 -10 40 -5 0 -10 14 -10 30 0 17 -4 38 -9 48 -5
9 -17 44 -26 77 -10 33 -21 68 -26 77 -5 10 -9 29 -9 42 0 14 -4 28 -10 31 -5
3 -10 24 -10 46 0 21 -4 39 -10 39 -5 0 -10 14 -10 31 0 49 -18 59 -109 59
-59 0 -82 -4 -88 -14z m169 -476 c3 -16 1 -30 -4 -30 -4 0 -8 14 -8 30 0 17 2
30 4 30 2 0 6 -13 8 -30z"/>
<path d="M3607 3023 c-4 -3 -7 -273 -7 -600 l0 -593 130 0 c71 0 139 4 152 9
75 29 108 45 108 53 0 4 5 8 10 8 17 0 60 47 60 65 0 8 4 15 9 15 15 0 81 137
81 169 0 17 5 31 10 31 6 0 10 32 10 75 0 43 4 75 10 75 6 0 10 40 10 100 0
60 -4 100 -10 100 -6 0 -10 32 -10 75 0 43 -4 75 -10 75 -5 0 -10 15 -10 34 0
19 -4 38 -10 41 -5 3 -10 17 -10 31 0 13 -4 24 -8 24 -5 0 -16 18 -26 40 -10
22 -22 40 -27 40 -5 0 -9 5 -9 11 0 14 -25 39 -39 39 -6 0 -11 4 -11 9 0 13
-106 61 -135 61 -13 0 -27 5 -30 10 -7 11 -228 14 -238 3z m213 -223 c0 -5 11
-10 25 -10 33 0 105 -71 105 -105 0 -14 4 -25 9 -25 21 0 43 -231 30 -320 -18
-127 -21 -140 -30 -140 -5 0 -9 -11 -9 -25 0 -14 -4 -25 -10 -25 -5 0 -10 -7
-10 -16 0 -32 -55 -64 -110 -64 l-40 0 0 370 c0 363 0 370 20 370 11 0 20 -4
20 -10z"/>
<path d="M1702 1358 c-16 -16 -18 -918 -2 -918 6 0 10 -23 10 -50 0 -32 8 -66
21 -92 27 -53 92 -118 118 -118 12 0 21 -4 21 -10 0 -6 45 -10 115 -10 70 0
115 4 115 10 0 6 9 10 20 10 21 0 90 61 90 80 0 5 5 10 10 10 6 0 10 9 10 19
0 11 5 21 12 23 7 3 14 32 16 76 2 40 8 72 13 72 15 0 12 883 -3 898 -16 16
-160 16 -176 0 -9 -9 -12 -126 -12 -465 0 -295 -3 -453 -10 -453 -5 0 -10 -7
-10 -15 0 -29 -33 -55 -71 -55 -39 0 -79 27 -79 53 0 8 -5 17 -11 19 -7 2 -10
146 -9 452 0 323 -3 452 -11 462 -15 18 -160 19 -177 2z"/>
<path d="M2670 765 l0 -605 85 0 85 0 0 339 c0 187 3 347 6 356 5 13 10 8 22
-22 8 -21 17 -55 19 -75 3 -21 9 -38 14 -38 5 0 9 -13 9 -30 0 -16 5 -30 10
-30 6 0 10 -16 10 -35 0 -19 5 -35 10 -35 6 0 10 -18 10 -40 0 -22 4 -40 9
-40 5 0 11 -18 15 -39 3 -22 15 -60 26 -86 11 -26 20 -58 20 -71 0 -13 5 -24
10 -24 6 0 10 -16 10 -35 0 -19 5 -35 10 -35 6 0 10 -13 10 -30 l0 -30 90 0
c53 0 90 4 90 10 3 242 -1 1184 -5 1191 -10 15 -144 11 -161 -5 -12 -12 -14
-71 -14 -335 0 -207 -4 -321 -10 -321 -5 0 -10 16 -10 35 0 19 -4 35 -10 35
-5 0 -10 14 -10 30 0 17 -4 38 -9 48 -14 26 -41 122 -41 143 0 11 -4 19 -10
19 -5 0 -10 14 -10 30 0 17 -4 30 -10 30 -5 0 -10 20 -10 45 0 25 -4 45 -10
45 -5 0 -10 13 -10 29 0 17 -4 33 -10 36 -5 3 -10 15 -10 26 0 11 -7 42 -16
70 l-16 49 -94 0 -94 0 0 -605z m410 -110 c0 -14 -4 -25 -10 -25 -5 0 -10 11
-10 25 0 14 5 25 10 25 6 0 10 -11 10 -25z"/>
<path d="M3650 765 l0 -605 85 0 85 0 0 258 c0 148 4 263 10 272 8 12 10 10
10 -11 0 -14 3 -29 6 -32 10 -10 43 -109 44 -129 0 -10 5 -18 10 -18 6 0 10
-18 10 -40 0 -22 5 -40 10 -40 6 0 10 -13 10 -30 0 -16 5 -30 10 -30 6 0 10
-16 10 -35 0 -19 5 -35 10 -35 6 0 10 -7 10 -16 0 -8 7 -37 16 -65 l16 -49 94
0 94 0 0 40 c0 22 -4 40 -10 40 -5 0 -10 16 -10 35 0 19 -4 35 -10 35 -5 0
-10 13 -10 29 0 17 -4 33 -10 36 -5 3 -10 17 -10 30 0 13 -6 39 -14 57 -20 48
-36 102 -36 121 0 9 -4 17 -10 17 -5 0 -10 18 -10 40 0 22 -4 40 -10 40 -5 0
-10 16 -10 35 0 19 -4 35 -10 35 -6 0 -10 26 -10 59 0 33 5 63 10 66 6 3 10
19 10 36 0 16 5 29 10 29 6 0 10 14 10 30 0 17 5 30 10 30 6 0 10 11 10 25 0
14 4 25 9 25 5 0 11 12 14 28 6 31 45 148 58 174 5 10 9 27 9 38 0 11 5 20 10
20 6 0 10 14 10 30 l0 30 -90 0 -90 0 -20 -32 c-11 -18 -20 -43 -20 -55 0 -12
-4 -25 -10 -28 -5 -3 -10 -17 -10 -31 0 -13 -4 -24 -10 -24 -5 0 -10 -13 -10
-30 0 -16 -4 -30 -10 -30 -5 0 -10 -16 -10 -35 0 -19 -4 -35 -8 -35 -4 0 -16
-29 -27 -65 -10 -36 -22 -65 -27 -65 -4 0 -8 -9 -8 -20 0 -11 -4 -20 -10 -20
-6 0 -10 85 -10 235 l0 235 -85 0 -85 0 0 -605z"/>
<path d="M930 765 l0 -585 95 0 95 0 0 250 0 250 90 0 90 0 0 100 0 99 -87 3
-88 3 -3 128 -3 127 101 0 100 0 0 105 0 105 -195 0 -195 0 0 -585z"/>
</g>
</svg>
